<svg width="226" height="41" viewBox="0 0 226 41" fill="none" xmlns="http://www.w3.org/2000/svg">
<path d="M58.1309 16.4346L55.9077 30.0142H49.8613L47.8081 16.4346H47.6099L46.8169 30H40.2891L41.4785 7.41455H50.9658L52.7642 20.4985H52.9482L54.7466 7.41455H64.248L65.4375 30H59.1221L58.3291 16.4346H58.1309ZM76.709 30.4248C76.1237 30.4248 75.6187 30.4201 75.1938 30.4106C74.769 30.4012 74.2782 30.3776 73.7212 30.3398C73.1642 30.3021 72.6828 30.2454 72.2769 30.1699C71.8804 30.1038 71.4461 30.0047 70.9741 29.8726C70.5116 29.7404 70.1151 29.5846 69.7847 29.4053C69.4637 29.2259 69.138 28.9993 68.8076 28.7256C68.4867 28.4518 68.2271 28.145 68.0288 27.8052C67.84 27.4653 67.6842 27.0641 67.5615 26.6016C67.4482 26.139 67.3916 25.6292 67.3916 25.0723V16.5054C67.3916 15.9106 67.4624 15.3678 67.604 14.877C67.755 14.3766 67.9722 13.9518 68.2554 13.6025C68.548 13.2533 68.869 12.9465 69.2183 12.6821C69.577 12.4084 70.0018 12.1865 70.4927 12.0166C70.9836 11.8467 71.4556 11.7051 71.9087 11.5918C72.3713 11.4785 72.8999 11.3983 73.4946 11.3511C74.0988 11.2944 74.6369 11.2567 75.1089 11.2378C75.5809 11.2189 76.119 11.2095 76.7231 11.2095C77.4595 11.2095 78.1061 11.2236 78.6631 11.252C79.2295 11.2708 79.8478 11.3228 80.5181 11.4077C81.1883 11.4927 81.7642 11.6107 82.2456 11.7617C82.7365 11.9128 83.2227 12.1204 83.7041 12.3848C84.195 12.6491 84.5915 12.9653 84.8936 13.3335C85.2051 13.7017 85.4552 14.1548 85.644 14.6929C85.8328 15.231 85.9272 15.8398 85.9272 16.5195V25.0864C85.9272 25.8133 85.8234 26.46 85.6157 27.0264C85.4175 27.5928 85.1673 28.0648 84.8652 28.4424C84.5726 28.8105 84.1619 29.1268 83.6333 29.3911C83.1141 29.646 82.6279 29.8395 82.1748 29.9717C81.7217 30.1038 81.1317 30.203 80.4048 30.269C79.6779 30.3446 79.0737 30.387 78.5923 30.3965C78.1203 30.4154 77.4925 30.4248 76.709 30.4248ZM75.4771 26.7715H77.8276V14.353H75.4771V26.7715ZM96.4199 24.959H96.604L98.0767 11.5918H105.879L101.928 30H90.6851L86.7202 11.5918H94.5225L96.4199 24.959ZM115.125 5.80029V9.82178H107.04V5.80029H115.125ZM115.125 30H107.04V11.5918H115.125V30ZM125.562 18.9976H127.94V14.353H125.562V18.9976ZM136.012 23.1606C136.087 23.7365 136.125 24.2227 136.125 24.6191C136.125 26.7337 135.37 28.23 133.859 29.1079C132.358 29.9858 129.994 30.4248 126.765 30.4248C126.208 30.4248 125.722 30.4201 125.307 30.4106C124.891 30.4012 124.41 30.3729 123.862 30.3257C123.315 30.2879 122.838 30.2313 122.432 30.1558C122.026 30.0897 121.587 29.9906 121.115 29.8584C120.653 29.7262 120.251 29.5705 119.912 29.3911C119.581 29.2023 119.251 28.971 118.92 28.6973C118.599 28.4235 118.335 28.1167 118.127 27.7769C117.929 27.4276 117.769 27.0169 117.646 26.5449C117.523 26.0729 117.462 25.5584 117.462 25.0015V16.5054C117.462 15.8162 117.566 15.1979 117.773 14.6504C117.981 14.0934 118.245 13.6356 118.566 13.2769C118.897 12.9087 119.322 12.5924 119.841 12.3281C120.369 12.0638 120.879 11.8608 121.37 11.7192C121.87 11.5776 122.46 11.4691 123.14 11.3936C123.82 11.3086 124.415 11.2567 124.924 11.2378C125.444 11.2189 126.048 11.2095 126.737 11.2095C127.275 11.2095 127.747 11.2142 128.153 11.2236C128.559 11.2331 129.031 11.2567 129.569 11.2944C130.116 11.3322 130.588 11.3888 130.985 11.4644C131.391 11.5304 131.83 11.6296 132.302 11.7617C132.774 11.8844 133.18 12.0355 133.52 12.2148C133.859 12.3942 134.194 12.6208 134.525 12.8945C134.855 13.1589 135.12 13.4609 135.318 13.8008C135.526 14.1312 135.691 14.5277 135.813 14.9902C135.946 15.4434 136.012 15.9437 136.012 16.4912V21.4473H125.562V27.1821H127.926V23.1606H136.012ZM145.896 14.0698L145.938 14.0981C145.938 14.1548 145.947 14.2114 145.966 14.2681C145.995 14.3247 146.032 14.3766 146.08 14.4238C146.136 14.4616 146.188 14.4993 146.235 14.5371C146.292 14.5654 146.363 14.5985 146.448 14.6362C146.542 14.6646 146.618 14.6882 146.674 14.707C146.74 14.7259 146.825 14.7495 146.929 14.7778C147.042 14.7967 147.127 14.8109 147.184 14.8203C147.241 14.8298 147.326 14.8439 147.439 14.8628C147.552 14.8817 147.628 14.8958 147.666 14.9053C149.79 15.2829 151.314 15.6322 152.239 15.9531C154.326 16.6706 155.708 17.8034 156.388 19.3516C156.766 20.1917 156.955 21.1829 156.955 22.3252C156.955 23.9583 156.775 25.3035 156.417 26.3608C156.067 27.4181 155.487 28.2583 154.675 28.8813C153.872 29.5044 152.891 29.9386 151.729 30.1841C150.578 30.4295 149.119 30.5522 147.354 30.5522C146.712 30.5522 146.136 30.5381 145.626 30.5098C145.117 30.4909 144.531 30.439 143.871 30.354C143.219 30.269 142.643 30.151 142.143 30C141.643 29.849 141.128 29.6366 140.6 29.3628C140.08 29.089 139.641 28.7681 139.283 28.3999C138.933 28.0223 138.631 27.555 138.376 26.998C138.122 26.4411 137.961 25.8133 137.895 25.1147C137.838 24.4728 137.81 23.7979 137.81 23.0898H145.924V26.6724H148.374V23.1323C148.374 22.953 148.326 22.7972 148.232 22.665C148.138 22.5234 147.986 22.4007 147.779 22.2969C147.571 22.1836 147.406 22.1034 147.283 22.0562C147.16 22.009 146.967 21.9429 146.703 21.8579C146.391 21.7541 145.985 21.6313 145.485 21.4897C144.985 21.3387 144.56 21.2113 144.21 21.1074C143.871 21.0036 143.465 20.8714 142.993 20.7109C142.53 20.5505 142.134 20.3994 141.803 20.2578C141.473 20.1068 141.109 19.9227 140.713 19.7056C140.326 19.479 139.995 19.2477 139.722 19.0117C139.457 18.7663 139.188 18.4831 138.915 18.1621C138.641 17.8317 138.424 17.4824 138.263 17.1143C138.103 16.7367 137.971 16.3071 137.867 15.8257C137.772 15.3442 137.725 14.825 137.725 14.2681C137.725 13.3996 137.805 12.6113 137.966 11.9033C138.126 11.1953 138.348 10.5864 138.631 10.0767C138.915 9.56689 139.273 9.12321 139.708 8.74561C140.151 8.35856 140.618 8.04704 141.109 7.81104C141.61 7.57503 142.181 7.38623 142.823 7.24463C143.474 7.09359 144.121 6.98975 144.763 6.93311C145.414 6.87646 146.136 6.84814 146.929 6.84814C147.76 6.84814 148.496 6.87174 149.138 6.91895C149.79 6.95671 150.436 7.03695 151.078 7.15967C151.729 7.27295 152.291 7.43343 152.763 7.64111C153.235 7.83936 153.679 8.09896 154.094 8.41992C154.51 8.74089 154.845 9.12793 155.1 9.58105C155.354 10.0247 155.557 10.5581 155.708 11.1812C155.86 11.8042 155.935 12.5075 155.935 13.291H148.345V10.7705H145.896V14.0698ZM170.336 30.0991C170.336 30.0991 170.308 30.1038 170.251 30.1133C170.194 30.1227 170.114 30.1322 170.01 30.1416C169.906 30.1605 169.784 30.1794 169.642 30.1982C169.51 30.2171 169.354 30.236 169.175 30.2549C168.995 30.2738 168.811 30.2879 168.623 30.2974C168.434 30.3162 168.226 30.3304 168 30.3398C167.782 30.3493 167.565 30.354 167.348 30.354C166.329 30.354 165.455 30.3257 164.729 30.269C164.011 30.2124 163.336 30.1086 162.704 29.9575C162.081 29.8065 161.571 29.6035 161.174 29.3486C160.778 29.0938 160.438 28.7633 160.155 28.3574C159.872 27.9515 159.669 27.4701 159.546 26.9131C159.423 26.3467 159.362 25.6812 159.362 24.9165V14.4238H157.422V11.5918H159.362V7.41455H167.447V11.5918H169.699V14.4238H167.447V25.3555C167.447 25.6481 167.523 25.8983 167.674 26.106C167.825 26.3042 168.042 26.4552 168.325 26.5591C168.608 26.6629 168.906 26.7384 169.217 26.7856C169.538 26.8234 169.911 26.8423 170.336 26.8423V30.0991ZM181.239 30.4248C180.654 30.4248 180.149 30.4201 179.724 30.4106C179.299 30.4012 178.808 30.3776 178.251 30.3398C177.694 30.3021 177.213 30.2454 176.807 30.1699C176.411 30.1038 175.976 30.0047 175.504 29.8726C175.042 29.7404 174.645 29.5846 174.315 29.4053C173.994 29.2259 173.668 28.9993 173.338 28.7256C173.017 28.4518 172.757 28.145 172.559 27.8052C172.37 27.4653 172.215 27.0641 172.092 26.6016C171.979 26.139 171.922 25.6292 171.922 25.0723V16.5054C171.922 15.9106 171.993 15.3678 172.134 14.877C172.285 14.3766 172.502 13.9518 172.786 13.6025C173.078 13.2533 173.399 12.9465 173.749 12.6821C174.107 12.4084 174.532 12.1865 175.023 12.0166C175.514 11.8467 175.986 11.7051 176.439 11.5918C176.902 11.4785 177.43 11.3983 178.025 11.3511C178.629 11.2944 179.167 11.2567 179.639 11.2378C180.111 11.2189 180.649 11.2095 181.253 11.2095C181.99 11.2095 182.636 11.2236 183.193 11.252C183.76 11.2708 184.378 11.3228 185.048 11.4077C185.719 11.4927 186.294 11.6107 186.776 11.7617C187.267 11.9128 187.753 12.1204 188.234 12.3848C188.725 12.6491 189.122 12.9653 189.424 13.3335C189.735 13.7017 189.986 14.1548 190.174 14.6929C190.363 15.231 190.458 15.8398 190.458 16.5195V25.0864C190.458 25.8133 190.354 26.46 190.146 27.0264C189.948 27.5928 189.698 28.0648 189.396 28.4424C189.103 28.8105 188.692 29.1268 188.164 29.3911C187.644 29.646 187.158 29.8395 186.705 29.9717C186.252 30.1038 185.662 30.203 184.935 30.269C184.208 30.3446 183.604 30.387 183.123 30.3965C182.651 30.4154 182.023 30.4248 181.239 30.4248ZM180.007 26.7715H182.358V14.353H180.007V26.7715ZM192.936 30L192.95 11.5918H199.832L200.412 13.6733C200.724 12.9276 201.299 12.3376 202.14 11.9033C202.98 11.4691 203.957 11.2378 205.071 11.2095V16.562L201.021 17.355V30H192.936ZM214.232 18.9976H216.611V14.353H214.232V18.9976ZM224.683 23.1606C224.758 23.7365 224.796 24.2227 224.796 24.6191C224.796 26.7337 224.041 28.23 222.53 29.1079C221.029 29.9858 218.665 30.4248 215.436 30.4248C214.879 30.4248 214.393 30.4201 213.978 30.4106C213.562 30.4012 213.081 30.3729 212.533 30.3257C211.986 30.2879 211.509 30.2313 211.103 30.1558C210.697 30.0897 210.258 29.9906 209.786 29.8584C209.324 29.7262 208.922 29.5705 208.583 29.3911C208.252 29.2023 207.922 28.971 207.591 28.6973C207.27 28.4235 207.006 28.1167 206.798 27.7769C206.6 27.4276 206.44 27.0169 206.317 26.5449C206.194 26.0729 206.133 25.5584 206.133 25.0015V16.5054C206.133 15.8162 206.237 15.1979 206.444 14.6504C206.652 14.0934 206.916 13.6356 207.237 13.2769C207.568 12.9087 207.993 12.5924 208.512 12.3281C209.04 12.0638 209.55 11.8608 210.041 11.7192C210.541 11.5776 211.131 11.4691 211.811 11.3936C212.491 11.3086 213.085 11.2567 213.595 11.2378C214.114 11.2189 214.719 11.2095 215.408 11.2095C215.946 11.2095 216.418 11.2142 216.824 11.2236C217.23 11.2331 217.702 11.2567 218.24 11.2944C218.787 11.3322 219.259 11.3888 219.656 11.4644C220.062 11.5304 220.501 11.6296 220.973 11.7617C221.445 11.8844 221.851 12.0355 222.19 12.2148C222.53 12.3942 222.865 12.6208 223.196 12.8945C223.526 13.1589 223.791 13.4609 223.989 13.8008C224.196 14.1312 224.362 14.5277 224.484 14.9902C224.617 15.4434 224.683 15.9437 224.683 16.4912V21.4473H214.232V27.1821H216.597V23.1606H224.683Z" fill="white"/>
<path fill-rule="evenodd" clip-rule="evenodd" d="M17.5 38C27.165 38 35 30.165 35 20.5C35 10.835 27.165 3 17.5 3C7.83502 3 0 10.835 0 20.5C0 30.165 7.83502 38 17.5 38ZM24.7348 19.0945L11.5659 15.5659L15.0945 28.7348L24.7348 19.0945Z" fill="white"/>
</svg>
